# xmcd CD database file
#
# Track frame offsets:
#	150
#	47996
#	79961
#	118606
#	165592
#	196355
#	219067
#	244678
#
# Disc length: 3656 seconds
#
# Revision: 0
# Processed by: cddbd v1.5.1PL0 Copyright (c) Steve Scherf et al.
# Submitted via: CDex 1.51
#
DISCID=660e4608
DTITLE=Various Artist - Aromatherapy 
DYEAR=1900
DGENRE=New Age
TTITLE0=Opening Petals - Llewellyn
TTITLE1=Cirrostratus - Kevin Kendle
TTITLE2=Cloudwalking - Stephen Rhodes
TTITLE3=First Meetings - Philip Chapman
TTITLE4=Petals at your Doorstep - Stephen Rhodes
TTITLE5=Tranquility - Llewellyn
TTITLE6=Infinite Discoveries - Philip Chapman
TTITLE7=Sacred Oils - Llewellyn
EXTD=
EXTT0=
EXTT1=
EXTT2=
EXTT3=
EXTT4=
EXTT5=
EXTT6=
EXTT7=
PLAYORDER=
